<?xml version="1.0" encoding="UTF-8" standalone="no"?> <svg id="Layer_1" data-name="Layer 1" xmlns="http://www.w3.org/2000/svg" viewBox="0 0 512 512"><title>Add to Cart</title><path d="M403.042,325.8l14.914-80.965a10.614,10.614,0,0,0-12.439-12.414A104.441,104.441,0,0,1,384,234.667a106.679,106.679,0,0,1-106.227-96.911A10.653,10.653,0,0,0,267.19,128H117l-1.544-6.948A31.994,31.994,0,0,0,84.227,96H53.9c-5.314,0-10.238,3.63-11.092,8.875a10.675,10.675,0,0,0,10.521,12.459H84.219a10.613,10.613,0,0,1,10.417,8.349l57.842,260.3a42.731,42.731,0,1,0,49.767,19.354H336.422A42.642,42.642,0,1,0,373.333,384H173.891l-7.111-32H371.573A32,32,0,0,0,403.042,325.8ZM165.333,442.667a16,16,0,1,1,16-16A16,16,0,0,1,165.333,442.667Zm224-16a16,16,0,1,1-16-16A16,16,0,0,1,389.333,426.667Z"/><path d="M384,42.667A85.333,85.333,0,1,0,469.333,128,85.334,85.334,0,0,0,384,42.667Zm37.333,96H394.667v26.667a10.667,10.667,0,1,1-21.333,0V138.667H346.667a10.667,10.667,0,1,1,0-21.333h26.667V90.667a10.667,10.667,0,1,1,21.333,0v26.667h26.667a10.667,10.667,0,0,1,0,21.333Z"/></svg>