<svg width="16" height="17" viewBox="0 0 16 17" fill="none" xmlns="http://www.w3.org/2000/svg">
<g opacity="0.48">
<path d="M11.7085 14.5005C11.6019 14.5009 11.4967 14.4757 11.4018 14.4271L8.00181 12.6471L4.60181 14.4271C4.37657 14.5456 4.10354 14.5254 3.8981 14.3753C3.69265 14.2251 3.59063 13.971 3.63515 13.7205L4.30181 9.96713L1.55515 7.30046C1.38052 7.1262 1.3164 6.86974 1.38848 6.63379C1.46731 6.39208 1.67676 6.21624 1.92848 6.18046L5.72848 5.62713L7.40181 2.20713C7.5132 1.97713 7.74626 1.83105 8.00181 1.83105C8.25736 1.83105 8.49042 1.97713 8.60181 2.20713L10.2951 5.62046L14.0951 6.17379C14.3469 6.20957 14.5563 6.38541 14.6351 6.62713C14.7072 6.86307 14.6431 7.11953 14.4685 7.29379L11.7218 9.96046L12.3885 13.7138C12.4371 13.969 12.333 14.2292 12.1218 14.3805C12.0011 14.4651 11.8557 14.5073 11.7085 14.5005Z" fill="#919EAB"/>
</g>
</svg>
