<?xml version="1.0" encoding="UTF-8"?>
<!DOCTYPE svg PUBLIC "-//W3C//DTD SVG 1.0//EN" "http://www.w3.org/TR/2001/REC-SVG-20010904/DTD/svg10.dtd">
<!-- Creator: CorelDRAW 2020 (64-Bit) -->
<svg xmlns="http://www.w3.org/2000/svg" xml:space="preserve" width="8.5in" height="2.16535in" version="1.0" style="shape-rendering:geometricPrecision; text-rendering:geometricPrecision; image-rendering:optimizeQuality; fill-rule:evenodd; clip-rule:evenodd"
viewBox="0 0 8500 2165.35"
 xmlns:xlink="http://www.w3.org/1999/xlink"
 xmlns:xodm="http://www.corel.com/coreldraw/odm/2003">
 <defs>
  <style type="text/css">
   <![CDATA[
    .fil0 {fill:url(#id0);fill-rule:nonzero}
   ]]>
  </style>
  <linearGradient id="id0" gradientUnits="userSpaceOnUse" x1="4749.74" y1="96.19" x2="4749.76" y2="2051.68">
   <stop offset="0" style="stop-opacity:1; stop-color:#315E02"/>
   <stop offset="1" style="stop-opacity:1; stop-color:#8BA627"/>
  </linearGradient>
 </defs>
 <g id="Layer_x0020_1">
  <metadata id="CorelCorpID_0Corel-Layer"/>
  <path class="fil0" d="M3353.02 1649.75c0,-67.55 0,-133.31 0,-198.85 -1.33,-0.44 -2.67,-0.89 -4.01,-1.34 -5.13,6.46 -10.48,12.71 -15.39,19.39 -61.53,82.26 -138.43,144.45 -238.52,172.98 -38.12,10.92 -78.24,18.95 -117.7,20.06 -78.03,2.23 -156.27,0.44 -234.3,-3.12 -77.8,-3.79 -146.68,-34.33 -209.32,-79.36 -26.3,-18.73 -29.65,-18.95 -55.28,-0.44 -71.56,51.49 -151.58,80.92 -239.19,83.59 -80.48,2.23 -161.17,0.67 -241.43,-4.01 -88.27,-5.13 -164.96,-43.02 -233.39,-97.64 -6.24,-5.13 -12.26,-10.7 -18.95,-15.16 -3.79,-2.67 -8.69,-3.79 -15.38,-6.69 0,27.42 0,52.17 0,77.35 -4.46,0.67 -7.58,1.56 -10.92,1.56 -71.56,-0.67 -142.89,0.89 -214.23,-2.45 -246.55,-11.59 -456.32,-192.39 -508.48,-433.8 -12.04,-55.95 -19.17,-112.34 -12.71,-168.52 6.24,-53.94 19.61,-107.45 41.69,-158.28 44.58,-102.1 106.78,-189.93 200.19,-253.02 83.37,-56.4 176.77,-82.93 276.42,-89.83 141.33,-10.03 282.89,-1.78 424.44,-2.01 2.23,0 4.69,0.44 7.58,0.89 0,112.8 0,225.15 0,339.73 -5.57,0 -10.92,0 -16.5,0 -123.94,0 -247.89,1.11 -371.61,0 -108.12,-0.89 -180.79,66.21 -207.54,137.77 -49.04,131.29 38.34,271.51 177.67,284.44 25.41,2.45 51.05,4.01 77.8,6.24 0,-128.18 0,-254.79 0,-382.52 114.8,0 228.5,0 343.75,0 0,5.8 0,11.37 0,16.94 0,91.4 -0.22,183.02 0.22,274.41 0,13.15 1.11,26.75 4.01,39.68 11.59,53.28 47.48,85.16 107.89,88.73 55.51,3.35 111.69,3.79 167.19,0 72.67,-5.13 111.23,-49.26 111.69,-122.39 0.67,-89.17 0.22,-178.11 0.22,-267.27 0,-30.09 3.35,-33.66 33.66,-33.66 98.08,0.22 196.4,0.22 294.48,0.44 2.89,0 5.8,0 8.47,0 11.81,0 17.16,4.01 16.94,17.61 -0.67,91.4 -0.44,183.02 -0.22,274.41 0,13.37 0.67,26.74 3.34,39.68 10.48,51.94 45.93,86.72 98.98,89.83 60.86,3.34 121.94,4.46 182.8,0.44 65.76,-4.46 105.44,-51.71 105.67,-117.93 0.44,-93.4 0.22,-186.8 0.22,-280.2 0,-5.58 0,-11.37 0,-18.06 115.47,0 229.83,0 345.98,0 0,5.35 0,10.48 0,15.61 0,90.5 -0.22,181 0.22,271.51 0,14.04 1.34,28.76 4.91,42.36 11.37,44.14 46.37,73.56 91.62,78.02 17.61,1.78 35.22,1.56 52.83,2.01 8.92,0.22 18.06,0 30.31,0 -59.3,-154.7 -55.95,-306.06 14.71,-456.31 -53.06,-22.3 -103,-49.26 -148.25,-84.71 -45.03,-35.22 -83.59,-76.02 -114.36,-122.17 84.49,-84.49 168.08,-168.08 252.13,-252.13 1.34,3.13 2.89,7.36 4.68,11.81 31.66,82.93 100.31,132.64 189.26,133.75 95.86,1.34 191.48,0.89 287.33,1.11 201.08,0.22 402.15,-0.67 603.23,0.22 280.21,1.56 510.04,202.85 550.17,480.39 41.91,289.13 -162.73,571.34 -450.08,619.05 -39.23,6.46 -79.58,9.14 -119.48,9.14 -432.69,0.67 -865.38,0.44 -1298.07,0.67 -4.66,0.02 -9.34,0.02 -17.37,0.02zm1493.8 194.61c12.04,0 22.74,0 34.77,0 0,69.11 0,137.77 0,207.54 -11.37,0 -22.52,0 -34.77,0 0,-68.66 0,-137.32 0,-207.54zm-1031.45 207.77c-12.04,0 -23.18,0 -35.22,0 0,-69.11 0,-137.55 0,-207.1 11.37,0 22.96,0 35.22,0 0,68.66 0,137.1 0,207.1zm212.22 -112.8c18.72,-28.31 36.34,-54.17 52.83,-80.7 6.69,-10.92 14.05,-16.72 27.2,-14.71 7.35,1.11 14.94,0.22 24.3,0.22 -3.35,5.8 -5.35,9.81 -7.81,13.59 -23.41,36.34 -47.26,72.67 -70,109.45 -4.68,7.58 -7.13,17.39 -7.57,26.31 -1.11,18.95 -0.44,38.12 -0.44,58.18 -12.26,0 -23.85,0 -36.78,0 0,-19.61 0.89,-39.01 -0.44,-58.41 -0.44,-8.91 -2.89,-18.95 -7.58,-26.3 -25.19,-40.35 -51.27,-80.03 -78.91,-122.61 14.71,0 27.2,-0.67 39.45,0.44 3.57,0.22 7.13,5.58 9.59,9.15 18.72,27.64 36.78,55.73 56.18,85.38zm197.28 113.46c26.98,-59.96 52.83,-117.48 78.91,-175.21 2.23,-4.68 5.35,-9.37 6.46,-14.27 4.01,-17.39 15.38,-22.52 31.43,-18.95 3.79,0.89 8.91,3.57 10.48,6.91 30.09,65.76 59.52,131.75 89.17,197.73 0.44,0.67 0,1.78 0,4.01 -10.7,0 -21.62,0.67 -32.32,-0.44 -3.57,-0.44 -9.14,-4.46 -9.81,-7.57 -7.58,-35.22 -30.99,-43.25 -62.65,-37.68 -0.89,0.22 -2.01,0 -2.89,0 -14.71,0 -32.54,-4.91 -43.47,1.56 -10.48,6.24 -13.82,24.52 -21.18,36.78 -2.01,3.34 -6.69,6.46 -10.48,6.69 -10.46,1.11 -20.94,0.44 -33.65,0.44zm140.44 -80.47c-10.48,-24.3 -20.29,-46.37 -31.43,-72.23 -11.37,26.08 -21.18,48.6 -31.43,72.23 21.62,0 41.24,0 62.86,0zm977.29 46.14c37,0 73.11,0 110.35,0 0,11.37 0,22.07 0,33.44 -48.82,0 -97.2,0 -146.68,0 0,-68.67 0,-137.55 0,-207.1 48.6,0 97.42,0 146.9,0 0,10.7 0,20.96 0,32.78 -36.56,0 -72.89,0 -110.57,0 0,18.72 0,35.89 0,54.61 32.77,0 65.31,0 98.75,0 0,12.04 0,22.74 0,34.56 -32.99,0 -65.31,0 -98.75,0 0,17.39 0,33.66 0,51.71zm-753.92 33.67c-13.37,0 -24.74,0 -36.56,0 0,-69.11 0,-137.55 0,-207.1 11.37,0 22.96,0 35.67,0 0,28.76 0,57.07 0,86.5 32.77,0 64.43,0 97.64,0 0,-28.53 0,-57.29 0,-86.94 12.71,0 24.07,0 36.34,0 0,68.66 0,137.55 0,207.09 -11.15,0 -22.52,0 -35.45,0 0,-27.42 0,-55.28 0,-83.81 -33.21,0 -64.87,0 -97.86,0 0.22,27.85 0.22,55.28 0.22,84.26zm592.97 -0.89c-22.52,6.46 -36.56,-1.78 -49.49,-20.07 -28.31,-39.68 -59.3,-77.8 -91.62,-119.71 0,49.26 0,94.52 0,140.44 -12.93,0 -24.07,0 -36.34,0 0,-68.67 0,-137.32 0,-206.65 18.28,-3.35 32.54,-1.56 45.03,16.05 27.2,38.34 57.29,74.9 86.05,112.13 2.45,3.34 5.35,6.24 10.26,11.81 0,-48.38 0,-93.63 0,-140 12.71,0 23.85,0 36.34,0 -0.22,68.45 -0.22,137.11 -0.22,206zm-1538.82 -203.31c-2.67,11.81 -5.13,22.29 -7.81,33.88 -16.05,-2.67 -31.43,-5.58 -46.81,-7.36 -9.81,-1.11 -20.06,-1.78 -29.87,-1.33 -34.55,2.01 -59.52,23.85 -64.65,55.95 -6.02,38.12 10.48,70 42.36,81.36 27.42,10.03 54.62,4.46 81.14,-3.34 2.67,-0.67 5.57,-5.13 5.8,-8.03 0.67,-11.81 0.22,-23.63 0.22,-37.22 -25.41,0 -49.94,0 -75.13,0 0,-12.04 0,-22.3 0,-33.66 36.34,0 72.67,0 111.02,0 0,32.54 0.22,65.32 -0.22,97.86 0,2.45 -3.35,5.8 -5.8,6.91 -38.79,16.72 -78.91,26.08 -121.05,16.28 -43.47,-10.03 -72.89,-45.69 -76.46,-90.72 -4.46,-56.4 18.95,-98.54 64.42,-115.03 41.46,-14.93 81.81,-7.35 122.83,4.46zm-1304.76 -1079.61c0,-84.93 0,-168.75 0,-252.57 0,-6.24 0,-12.26 0,-19.17 98.98,0 197.29,0 296.26,0 0,91.4 0,181.24 0,271.74 -98.75,0 -196.62,0 -296.26,0zm4449.5 -609.02c24.97,55.06 49.26,108.34 74.46,163.18 -158.06,72 -315.66,144.01 -474.83,216.68 -24.97,-54.61 -49.49,-108.12 -74.68,-163.18 158.28,-72.23 315.88,-144.23 475.05,-216.68zm-1253.93 1628.21c200.85,0 400.81,0 601.66,0 0,90.95 0,181.23 0,272.63 -200.19,0 -400.36,0 -601.66,0 0,-90.28 0,-180.56 0,-272.63zm-2178.39 0.45c0,91.62 0,181.46 0,272.41 -200.86,0 -401.04,0 -602.11,0 0,-90.73 0,-181.01 0,-272.41 200.63,0 400.81,0 602.11,0zm2900.42 -135.09c0,-33.44 0,-64.87 0,-99.65 -12.48,8.47 -22.96,15.16 -33.22,22.52 -70,50.38 -147.57,82.26 -234.07,85.6 -74.23,2.67 -148.69,2.23 -222.69,-2.01 -42.8,-2.45 -86.94,-9.8 -126.85,-24.52 -180.57,-66.21 -284.23,-196.17 -303.4,-387.88 -7.35,-72.23 -4.24,-145.57 -4.24,-218.46 -0.22,-209.1 0.44,-418.42 0.67,-627.52 0,-6.02 0.44,-12.26 0.89,-19.61 114.8,0 228.94,0 345.08,0 0,5.8 0,11.81 0,17.83 0,260.15 0,520.3 0.22,780.67 0,13.82 0.67,27.64 2.89,41.24 8.91,53.94 42.36,90.06 96.52,93.4 63.97,4.01 128.62,4.24 192.6,0 55.51,-3.57 94.3,-48.37 96.97,-104.55 2.01,-45.25 0.89,-90.5 1.11,-135.75 0.22,-52.83 0,-105.89 0,-158.72 0,-5.13 0,-10.26 0,-16.28 115.03,0 228.72,0 345.98,0 0,11.81 0,23.85 0,36.11 0.22,80.48 -0.22,161.16 0.89,241.64 0.22,21.18 2.45,43.02 8.25,63.31 12.71,43.24 49.49,70.89 97.86,72.23 60.86,1.78 121.94,0.89 183.02,0.67 189.7,-0.67 379.41,-1.56 568.9,-2.01 43.02,0 84.49,-5.35 123.5,-24.53 78.47,-38.56 124.61,-124.17 114.14,-212.66 -10.48,-88.95 -76.24,-162.51 -164.74,-181.01 -25.41,-5.35 -51.94,-6.46 -78.02,-6.46 -227.82,-0.44 -455.65,0 -683.26,0 -7.58,0 -15.38,0.22 -22.96,-0.44 -15.38,-1.11 -27.64,-7.81 -34.33,-22.07 -39.68,-84.71 -79.36,-169.64 -119.48,-255.92 9.59,-4.46 18.95,-8.91 28.09,-13.37 325.46,-154.26 650.93,-308.52 976.4,-463.01 12.04,-5.8 23.18,-12.93 34.78,-19.61 11.37,-6.46 14.71,-4.46 19.84,7.13 18.5,42.13 37.68,84.27 57.07,125.95 16.94,36.78 34.56,73.11 51.72,109.68 4.68,9.81 8.69,19.84 13.37,30.98 -6.02,3.13 -11.37,6.02 -16.94,8.69 -94.07,44.81 -188.15,89.61 -282.22,134.2 -2.67,1.11 -5.57,2.01 -7.57,3.79 -2.45,2.23 -4.46,5.13 -6.46,7.81 3.13,1.33 6.24,3.79 9.37,4.01 25.64,1.78 51.49,1.56 76.91,4.91 199.52,26.52 345.08,129.74 435.58,309.64 30.54,60.63 48.38,125.73 55.51,192.61 8.91,84.7 -5.35,167.41 -37.45,246.1 -79.35,194.39 -223.13,310.98 -429.56,348.87 -31.21,5.8 -63.53,6.91 -95.41,6.91 -339.73,0.44 -679.47,0.22 -1019.42,0.22 -4.93,-0.67 -9.61,-0.67 -15.85,-0.67zm-2150.96 -758.81c-111.46,0 -201.74,90.06 -201.52,201.51 0,111.91 90.51,202.19 202.86,202.41 110.57,0.44 201.97,-90.73 202.19,-201.52 0.22,-113.24 -89.17,-202.19 -203.53,-202.41zm510.26 -3.57c53.72,140.44 51.5,277.53 -0.89,414.63 37.68,5.13 73.57,4.24 109.46,-1.56 122.61,-20.51 200.41,-137.32 171.2,-257.92 -28.09,-116.15 -132.41,-167.19 -222.48,-163.62 -18.72,0.67 -37.22,5.35 -57.29,8.47z"/>
 </g>
</svg>
