<svg
      width="20"
      height="20"
      viewBox="0 0 20 20"
      xmlns="http://www.w3.org/2000/svg"
    >
      <path
        d="M9.50971 2.39771C13.383 2.39771 16.5265 5.54123 16.5265 9.4145C16.5265 13.2878 13.383 16.4313 9.50971 16.4313C5.63644 16.4313 2.49292 13.2878 2.49292 9.4145C2.49292 5.54123 5.63644 2.39771 9.50971 2.39771ZM9.50971 14.872C12.525 14.872 14.9672 12.4298 14.9672 9.4145C14.9672 6.39923 12.525 3.95699 9.50971 3.95699C6.49444 3.95699 4.05221 6.39923 4.05221 9.4145C4.05221 12.4298 6.49444 14.872 9.50971 14.872ZM16.1252 14.9274L18.3304 17.1326L17.2278 18.2352L15.0227 16.03L16.1252 14.9274Z"
        fill="#000"
      />
    </svg>